# xmcd
#
# Track frame offsets:
# 150
# 12125
# 25175
# 44450
# 63500
# 77600
# 100850
# 118100
# 137750
# 154100
# 179600
#
# Disc length: 2619 seconds
#
# Revision: 1
# Processed by: cddbd v1.4PL0 Copyright (c) Steve Scherf et al.
# Submitted via: Easy CD Ripper v2.16
#
DISCID=8b0a390b
DTITLE=Ian Tyson - Cowboyography
DYEAR=1986
DGENRE=Country
TTITLE0=Springtime
TTITLE1=Navajo Rug
TTITLE2=Summer Wages
TTITLE3=Fifty Years Ago
TTITLE4=Rockies Turn Rose
TTITLE5=Claude Dallas
TTITLE6=Own Heart's Delight
TTITLE7=The Gift
TTITLE8=Cowboy Pride
TTITLE9=Old Cheyenne
TTITLE10=The Coyote and the Cowboy
EXTD=Cowboyography
EXTT0=
EXTT1=
EXTT2=
EXTT3=
EXTT4=
EXTT5=
EXTT6=
EXTT7=
EXTT8=
EXTT9=
EXTT10=
PLAYORDER=
